# xmcd
#
# Track frame offsets:
#	150
#	14475
#	34505
#	49173
#	65345
#	84108
#	96583
#	118165
#	130178
#	145598
#	163223
#	182750
#	195665
#	208563
#	221258
#	232280
#	244698
#
# Disc length: 3431 seconds
#
# Revision: 0
# Processed by: cddbd v1.5.2PL0 Copyright (c) Steve Scherf et al.
# Submitted via: audiograbber 1.83.01
#
DISCID=f10d6511
DTITLE=Nitty Gritty Dirt Band, The - Will The Circle Be Unbroken - Disc1
DYEAR=1972
DGENRE=Bluegrass
TTITLE0=Jimmy Martin - Grand Ole Opry Song
TTITLE1=Mother Maybelle Carter - Keep On The Sunny Side
TTITLE2=Earl Scruggs - Nashville Blues
TTITLE3=John McEuen - You Are My Flower
TTITLE4=Roy Acuff - The Precious Jewel
TTITLE5=Merle Travis - Dark As A Dungeon
TTITLE6=Doc Watson - Tennessee Stud
TTITLE7=Doc Watson - Black Mountain Rag
TTITLE8=Roy Acuff - The Wreck On The Highway
TTITLE9=Pete "Oswald" Kirby - The End Of The World
TTITLE10=Roy Acuff - I Saw The Light
TTITLE11=Jimmy Martin - Suuny Side Of The Mountain
TTITLE12=Merle Travis - Nine Pound Hammer
TTITLE13=Jimmy Martin - Losin' You (Might Be The Best Thing Yet)
TTITLE14=Jimmie Fadden - Honky Tonkin'
TTITLE15=Jimmy Martin - You Don't Know My Mind
TTITLE16=Jimmy Martin - My Walkin' Shoes
EXTD=
EXTT0=
EXTT1=
EXTT2=
EXTT3=
EXTT4=
EXTT5=
EXTT6=
EXTT7=
EXTT8=
EXTT9=
EXTT10=
EXTT11=
EXTT12=
EXTT13=
EXTT14=
EXTT15=
EXTT16=
PLAYORDER=
